# xmcd CD database file
#
# Track frame offsets:
#	150
#	21267
#	39613
#	61661
#	80688
#	105005
#	133694
#	153513
#	178892
#	194747
#
# Disc length: 2976 seconds
#
# Revision: 0
# Processed by: cddbd v1.5.1PL0 Copyright (c) Steve Scherf et al.
# Submitted via: CDex 1.51
#
DISCID=820b9e0a
DTITLE=Pierrot - DICTATORS CIRCUS-猟奇的旋律-
DYEAR=2003
DGENRE=Rock
TTITLE0=自殺の理由
TTITLE1=Adolf
TTITLE2=脳内モルヒネ
TTITLE3=screen トリカゴ
TTITLE4=ドラキュラ
TTITLE5=鬼と桜
TTITLE6=青い空の下
TTITLE7=SEPIA
TTITLE8=満月に照らされた最後の言葉
TTITLE9=HUMAN GATE
EXTD=YEAR: 2003
EXTT0=
EXTT1=
EXTT2=
EXTT3=
EXTT4=
EXTT5=
EXTT6=
EXTT7=
EXTT8=
EXTT9=
PLAYORDER=
